<?xml version="1.0" encoding="UTF-8"?>
<svg id="Layer_1" data-name="Layer 1" xmlns="http://www.w3.org/2000/svg" version="1.1" viewBox="0 0 1298 544">
  <defs>
    <style>
      .cls-1 {
        fill: #d90101;
        stroke-width: 0px;
      }
    </style>
  </defs>
  <path class="cls-1" d="M197.5,182.4c73.7-33.6,145.3-71.8,213.8-115.1h1.3c-8.4,18.4-17.3,36.5-25.9,54.7-1.1,3.3-4.8,3.8-7.6,5-36.9,14-73.8,28-110.7,41.9-4.9,2.1-10.2,3.5-14.8,6.2,3.5-.5,6.8-1.7,10.2-2.8,36.1-12.3,72.2-24.6,108.3-36.8,4.5-1.4,8.8-3.4,13.6-4.1-2.2,2.5-5.2,3.9-8,5.4-54.3,28.7-112.7,49.1-171.8,65.4-5,1.5-10.9,3.6-12.4,9.2-2.3,8.4-5,16.8-9.3,24.3-2.9,5.5-6.9,10.4-10,15.8,1.5-.7,3.1-1.5,3.9-3,6.4-9.2,12.6-18.7,17-29,1.5-3.2,1.5-7,3.6-9.9,4-3.3,9.5-3.3,14.3-4.7,33.4-8.9,65.7-21.1,97.8-33.9,53.8-21.6,106.6-45.8,160.6-67,1.3-.4,2.6-.8,3.9-1.1-6.9,9.9-14.8,19.1-22.2,28.8-7.5,9.6-14.9,19.2-22.4,28.7-1.1,1.3-2.2,3-4,3.4-46.8,12.1-93.7,24.1-140.6,36-2.9.8-5.8,1.5-8.5,2.6,2.1,0,4.3-.2,6.3-.6,36.2-7.9,72.4-15.8,108.6-23.6,10.4-2.1,20.8-4.8,31.3-6.5-6.5,7.6-14.1,14.2-21,21.3-2.8,2.4-4.9,5.9-8.5,7.1-36.6,6.5-73.2,12.7-109.7,19.1-1.9.3-3.6.9-5.4,1.6,13.8-1,27.5-3.6,41.2-5.3,23.8-3.4,47.7-6.7,71.5-9.9-2,3.3-5.4,5.4-8.2,7.9-5.4,4.7-10.9,9.2-16.3,14-1.6,1.3-3.2,3.1-5.4,3.3-28.6,3.1-57.3,5.1-85.8,8.5,7,.5,14,.2,20.9-.6,20.1-.9,40.2-2.5,60.4-3.6-1.7,2.4-4.2,3.7-6.6,5.2-9.4,5.6-18.5,11.7-27.9,17.1-9.1.7-18.4-.2-27.6,0,0,.7,0,2.2,0,3,5.9.5,11.9.4,17.8,1.4-5.3,3.7-11.9,4.4-17.8,6.9,0,48.6,0,97.1,0,145.7h-33.5c-5.2-6-10.4-12.1-15.6-18.1-12,11.4-27.9,18.4-44.3,20.6-21.1,2.9-43.6-.9-61.5-13.1-20.6-13.5-33.1-37.3-34.6-61.6-.4-2.8.4-6.2-2-8.2-7-7.6-14-15.4-20.9-23-1.9-2.2-4.4-4.3-5-7.3-2.3-10.8-4.6-21.7-7-32.5-.9-2.7,2-4.4,3.3-6.4,15.7-19.1,31.2-38.5,46.9-57.6,2.2-3,6-5.7,5.4-9.9-.5-9.2-.6-18.3-1.2-27.5-4,3-6.9,7.2-11,9.9-5.6-.3-11-1.9-16.6-2-5.1,2.5-9.6,6.3-14.5,9.2-5.7,3-7.1,9.9-11.2,14.5-6.2-4.6-13.1-8.1-19-12.9.4-6.2,2.2-12.3,3-18.4,0-3,2.4-5,4.2-7.1,10.7-11.6,21.3-23.2,32-34.8,4.2-4,9.3-6.7,13.9-10.1,3.7-3,8.7-3,13.1-4.4-3.1-3.7-6.9-6.7-9.7-10.6,11.4.8,22.9,3,33.5,7.3,1.8,1,4.5,1.6,5,3.9,1.1,5.2.6,10.7,2.3,15.9,5.1-2.9,10.1-5.9,15.3-8.7,13.6,6,23.3,18.5,29.1,31.9,2.9,6.8,5.4,13.8,6.5,21.1-.2.3-.6,1-.8,1.3-6.1,3.3-12.6,5.6-18.9,8.3-4.1,1.7-8.7,2.7-12,5.8-2.7,2.5-3.5,6.3-4.5,9.7-2.8,11.6-7.1,22.8-11.6,33.8-4.4,10.5-8.8,21.1-14,31.2,2.7-1.9,6.2-3.3,7.5-6.6,10-19.2,18-39.5,23.3-60.6.6-3,2.8-5.3,5.6-6.3,7.2-2.9,14.5-5.6,21.5-8.9ZM94.6,147.8c3,.5,6,1.3,9.1,1.5,2.2-5.3,4.3-10.6,6.1-16.1-5.3,4.6-10.2,9.7-15.2,14.7ZM192.1,300.5c-10,2.2-18.8,9.3-22.7,18.8-3.2,8-3.5,17-1.4,25.3,2.5,10.2,10.6,18.7,20.6,22.1,8,2.6,16.7,2.7,24.9.7,10.2-2.6,18.9-10.5,22.1-20.5,2.5-7.7,2.6-16.1.5-23.9-2.7-9.8-10.4-18-20-21.3-7.6-2.7-16.1-2.9-23.9-1.2Z"/>
  <path class="cls-1" d="M468.1,280.3c23.3-22.9,46.5-45.8,69.9-68.7,7.7,0,15.4,0,23.1,0v41.9c15.3,0,30.5,0,45.8,0,0,16.1,0,32.1,0,48.1h-45.8c0,15.1,0,30.1,0,45.2,0,5.4,1,11.3,4.8,15.4,3.7,3.9,9.2,5.3,14.4,5.7,9.7.7,19.3-1,28.5-3.9,0,15.9,0,31.9,0,47.8-21.1,5.1-43.4,7.7-64.9,3.6-13.4-2.6-26.7-9.3-34.5-20.9-7.5-10.9-10-24.4-10.1-37.4,0-17.5,0-35,0-52.5h-31.2c0-8.2,0-16.3,0-24.5Z"/>
  <path class="cls-1" d="M405.5,253.7c14.7-5,30.8-3.9,45.7-.3,0,17.3,0,34.6,0,51.9-10.8-2.6-22.2-4.6-33.1-1.6-7.1,1.9-13.5,6.7-17,13.2-3.7,6.5-4.8,14.2-4.8,21.6,0,25.4,0,50.8,0,76.2h-61.8v-161.3c10.3,0,20.6,0,30.9,0,5.5,5.8,11,11.6,16.5,17.4,6.2-7.6,14.2-14,23.6-17.2Z"/>
  <path class="cls-1" d="M852.2,270c14.5-12.7,33.6-19.5,52.7-19.9,21.9-.9,44.8,5.7,60.9,21.1,5.1-5.9,10.3-11.8,15.5-17.7,11.2,0,22.3,0,33.5,0v161.3h-33.5c-5.2-6-10.4-12.1-15.6-18.1-12.1,11.4-27.9,18.4-44.3,20.6-18.6,2.5-38.3,0-54.9-9.1-13-6.9-23.9-17.7-30.9-30.6-9.7-17.5-12.2-38.2-9.5-57.9,2.6-18.9,11.7-37,26.1-49.6ZM911.6,300.5c-10,2.2-18.8,9.3-22.7,18.8-3.2,7.9-3.5,16.9-1.5,25.2,2.5,10.2,10.6,18.8,20.6,22.1,8,2.6,16.8,2.8,24.9.7,10.2-2.6,18.9-10.5,22.1-20.5,2.5-7.6,2.6-16.1.5-23.8-2.6-9.8-10.4-18-20-21.3-7.7-2.7-16.1-2.9-24-1.2Z"/>
  <path class="cls-1" d="M624.1,253.2c21.8,0,43.6,0,65.4,0,10.8,30.2,21.6,60.4,32.5,90.5,10.8-30.2,21.6-60.4,32.5-90.5,21.7,0,43.4,0,65,0-24.5,53.8-49,107.5-73.4,161.3-16.1,0-32.3,0-48.4,0-24.5-53.8-49-107.5-73.4-161.2Z"/>
  <path class="cls-1" d="M1044.9,253.2c22.4,0,44.9,0,67.3,0,9.3,13.5,18.6,27,27.9,40.6,8.8-12.8,17.6-25.6,26.4-38.4.7-.8,1.3-2.4,2.7-2.2,21.9-.1,43.9,0,65.8,0-18.5,26.3-37,52.7-55.6,79,19.5,27.4,39,54.8,58.5,82.2-22.3,0-44.6,0-66.8,0-1.4.3-2.6-.4-3.2-1.7-9.3-13.7-18.5-27.4-27.8-41.1-9.8,14.3-19.5,28.6-29.3,42.8-22.9,0-45.7,0-68.6,0,19.5-27.4,39-54.8,58.5-82.2-18.6-26.3-37.3-52.7-55.9-79.1Z"/>
</svg>